<svg width="54" height="56" viewBox="0 0 54 56" fill="none" xmlns="http://www.w3.org/2000/svg">
<g filter="url(#filter0_d_26_10347)">
<g filter="url(#filter1_d_26_10347)">
<path d="M26.1586 0.483835C31.6503 6.43989 47.6861 10.0797 49.0041 10.6312C50.3221 11.1826 51.3232 18.3359 51.3232 18.3359C51.3232 18.3359 50.4193 17.7597 47.8206 17.9969C45.2219 18.2342 44.092 19.0138 44.092 19.0138L43.7531 16.6411C40.0245 16.3021 32.529 14.8225 26.1586 11.2929C19.8337 15.6235 11.0014 16.4769 7.48668 14.3813C5.10154 13.7873 5.38241 11.9856 4.43339 10.7657C15.966 9.11124 23.0446 4.32173 26.1586 0.483835Z" fill="url(#paint0_linear_26_10347)"/>
</g>
<g filter="url(#filter2_d_26_10347)">
<path d="M31.5221 35.3636L34.5761 27.6931L40.9423 24.9396C38.2179 26.7218 36.9822 30.0289 36.7048 31.4596C34.513 31.8689 32.3364 34.2328 31.5221 35.3636Z" fill="url(#paint1_linear_26_10347)"/>
<path d="M47.6254 39.1202C49.4386 37.9993 51.8958 34.829 52.5327 32.6685L51.8657 39.5157L45.6645 44.824C46.9635 42.9554 47.513 40.2429 47.6254 39.1202Z" fill="url(#paint2_linear_26_10347)"/>
<path d="M51.6448 22.3524C41.9272 21.6413 37.7553 29.9789 36.8841 34.2366C37.9361 33.3507 40.668 32.0292 43.18 33.8301C45.692 35.6311 45.2853 38.379 44.7679 39.5278C53.3633 35.225 52.9339 26.2847 51.6448 22.3524Z" fill="url(#paint3_linear_26_10347)"/>
<g filter="url(#filter3_i_26_10347)">
<path d="M43.8469 30.4534C42.3166 25.7189 47.6539 24.1614 50.5711 23.9864C51.1042 28.8667 49.4404 30.8168 48.4358 31.4082C45.7425 32.5701 44.1673 31.4443 43.8469 30.4534Z" fill="black"/>
</g>
</g>
<g filter="url(#filter4_d_26_10347)">
<path d="M11.9369 41.0466L3.41657 21.3868C2.62565 19.692 2.72604 12.3264 3.64244 10.6529C5.56323 9.52307 10.7459 9.99158 20.7767 5.11047C7.3312 17.0872 12.1545 32.3151 22.7375 40.3686L11.9369 41.0466Z" fill="url(#paint4_linear_26_10347)"/>
</g>
<g filter="url(#filter5_i_26_10347)">
<path d="M26.4407 42.6266C3.95514 28.8048 6.55668 13.1767 9.62762 9.18164C7.48086 9.63359 3.98146 10.2005 3.64249 10.6525C-0.668639 17.2218 0.635113 34.3287 15.884 47.4864C17.1938 47.8254 21.4504 47.4638 27.9982 43.3059L26.4407 42.6266Z" fill="url(#paint5_linear_26_10347)"/>
</g>
<g filter="url(#filter6_d_26_10347)">
<path d="M35.957 36.6835C26.1876 46.642 17.8548 47.9021 15.8452 47.4871C15.8452 47.4871 18.8004 50.0405 20.9297 51.3287C23.0496 52.6113 26.6658 54.0404 26.6658 54.0404C28.8917 53.0446 34.3752 51.3287 40.0907 45.864C42.0583 43.9826 45.3991 40.0462 42.7185 36.6835C40.7025 34.1546 37.4258 35.1863 35.957 36.6835Z" fill="url(#paint6_linear_26_10347)"/>
</g>
</g>
<defs>
<filter id="filter0_d_26_10347" x="0.8022" y="0.483833" width="52.4283" height="54.9522" filterUnits="userSpaceOnUse" color-interpolation-filters="sRGB">
<feFlood flood-opacity="0" result="BackgroundImageFix"/>
<feColorMatrix in="SourceAlpha" type="matrix" values="0 0 0 0 0 0 0 0 0 0 0 0 0 0 0 0 0 0 127 0" result="hardAlpha"/>
<feOffset dy="0.6978"/>
<feGaussianBlur stdDeviation="0.3489"/>
<feComposite in2="hardAlpha" operator="out"/>
<feColorMatrix type="matrix" values="0 0 0 0 0 0 0 0 0 0 0 0 0 0 0 0 0 0 0.25 0"/>
<feBlend mode="normal" in2="BackgroundImageFix" result="effect1_dropShadow_26_10347"/>
<feBlend mode="normal" in="SourceGraphic" in2="effect1_dropShadow_26_10347" result="shape"/>
</filter>
<filter id="filter1_d_26_10347" x="3.73555" y="0.483833" width="48.2855" height="19.9256" filterUnits="userSpaceOnUse" color-interpolation-filters="sRGB">
<feFlood flood-opacity="0" result="BackgroundImageFix"/>
<feColorMatrix in="SourceAlpha" type="matrix" values="0 0 0 0 0 0 0 0 0 0 0 0 0 0 0 0 0 0 127 0" result="hardAlpha"/>
<feOffset dy="0.6978"/>
<feGaussianBlur stdDeviation="0.3489"/>
<feComposite in2="hardAlpha" operator="out"/>
<feColorMatrix type="matrix" values="0 0 0 0 0 0 0 0 0 0 0 0 0 0 0 0 0 0 0.25 0"/>
<feBlend mode="normal" in2="BackgroundImageFix" result="effect1_dropShadow_26_10347"/>
<feBlend mode="normal" in="SourceGraphic" in2="effect1_dropShadow_26_10347" result="shape"/>
</filter>
<filter id="filter2_d_26_10347" x="30.8243" y="22.3097" width="22.4062" height="23.9099" filterUnits="userSpaceOnUse" color-interpolation-filters="sRGB">
<feFlood flood-opacity="0" result="BackgroundImageFix"/>
<feColorMatrix in="SourceAlpha" type="matrix" values="0 0 0 0 0 0 0 0 0 0 0 0 0 0 0 0 0 0 127 0" result="hardAlpha"/>
<feOffset dy="0.6978"/>
<feGaussianBlur stdDeviation="0.3489"/>
<feComposite in2="hardAlpha" operator="out"/>
<feColorMatrix type="matrix" values="0 0 0 0 0 0 0 0 0 0 0 0 0 0 0 0 0 0 0.25 0"/>
<feBlend mode="normal" in2="BackgroundImageFix" result="effect1_dropShadow_26_10347"/>
<feBlend mode="normal" in="SourceGraphic" in2="effect1_dropShadow_26_10347" result="shape"/>
</filter>
<filter id="filter3_i_26_10347" x="43.5767" y="23.9864" width="7.09729" height="8.61308" filterUnits="userSpaceOnUse" color-interpolation-filters="sRGB">
<feFlood flood-opacity="0" result="BackgroundImageFix"/>
<feBlend mode="normal" in="SourceGraphic" in2="BackgroundImageFix" result="shape"/>
<feColorMatrix in="SourceAlpha" type="matrix" values="0 0 0 0 0 0 0 0 0 0 0 0 0 0 0 0 0 0 127 0" result="hardAlpha"/>
<feOffset dy="0.6978"/>
<feGaussianBlur stdDeviation="0.3489"/>
<feComposite in2="hardAlpha" operator="arithmetic" k2="-1" k3="1"/>
<feColorMatrix type="matrix" values="0 0 0 0 0 0 0 0 0 0 0 0 0 0 0 0 0 0 0.25 0"/>
<feBlend mode="normal" in2="shape" result="effect1_innerShadow_26_10347"/>
</filter>
<filter id="filter4_d_26_10347" x="2.70897" y="5.11047" width="21.2496" height="37.3317" filterUnits="userSpaceOnUse" color-interpolation-filters="sRGB">
<feFlood flood-opacity="0" result="BackgroundImageFix"/>
<feColorMatrix in="SourceAlpha" type="matrix" values="0 0 0 0 0 0 0 0 0 0 0 0 0 0 0 0 0 0 127 0" result="hardAlpha"/>
<feOffset dx="0.52335" dy="0.6978"/>
<feGaussianBlur stdDeviation="0.3489"/>
<feComposite in2="hardAlpha" operator="out"/>
<feColorMatrix type="matrix" values="0 0 0 0 0 0 0 0 0 0 0 0 0 0 0 0 0 0 0.25 0"/>
<feBlend mode="normal" in2="BackgroundImageFix" result="effect1_dropShadow_26_10347"/>
<feBlend mode="normal" in="SourceGraphic" in2="effect1_dropShadow_26_10347" result="shape"/>
</filter>
<filter id="filter5_i_26_10347" x="1.5" y="9.18164" width="26.4982" height="39.0996" filterUnits="userSpaceOnUse" color-interpolation-filters="sRGB">
<feFlood flood-opacity="0" result="BackgroundImageFix"/>
<feBlend mode="normal" in="SourceGraphic" in2="BackgroundImageFix" result="shape"/>
<feColorMatrix in="SourceAlpha" type="matrix" values="0 0 0 0 0 0 0 0 0 0 0 0 0 0 0 0 0 0 127 0" result="hardAlpha"/>
<feOffset dy="0.6978"/>
<feGaussianBlur stdDeviation="0.436125"/>
<feComposite in2="hardAlpha" operator="arithmetic" k2="-1" k3="1"/>
<feColorMatrix type="matrix" values="0 0 0 0 0 0 0 0 0 0 0 0 0 0 0 0 0 0 0.25 0"/>
<feBlend mode="normal" in2="shape" result="effect1_innerShadow_26_10347"/>
</filter>
<filter id="filter6_d_26_10347" x="15.1474" y="35.1497" width="29.269" height="20.2863" filterUnits="userSpaceOnUse" color-interpolation-filters="sRGB">
<feFlood flood-opacity="0" result="BackgroundImageFix"/>
<feColorMatrix in="SourceAlpha" type="matrix" values="0 0 0 0 0 0 0 0 0 0 0 0 0 0 0 0 0 0 127 0" result="hardAlpha"/>
<feOffset dy="0.6978"/>
<feGaussianBlur stdDeviation="0.3489"/>
<feComposite in2="hardAlpha" operator="out"/>
<feColorMatrix type="matrix" values="0 0 0 0 0 0 0 0 0 0 0 0 0 0 0 0 0 0 0.25 0"/>
<feBlend mode="normal" in2="BackgroundImageFix" result="effect1_dropShadow_26_10347"/>
<feBlend mode="normal" in="SourceGraphic" in2="effect1_dropShadow_26_10347" result="shape"/>
</filter>
<linearGradient id="paint0_linear_26_10347" x1="16.59" y1="12.172" x2="51.3928" y2="15.2248" gradientUnits="userSpaceOnUse">
<stop stop-color="white"/>
<stop offset="0.647135" stop-color="white"/>
</linearGradient>
<linearGradient id="paint1_linear_26_10347" x1="41.415" y1="22.8649" x2="42.8445" y2="45.006" gradientUnits="userSpaceOnUse">
<stop stop-color="white"/>
<stop offset="1" stop-color="white"/>
</linearGradient>
<linearGradient id="paint2_linear_26_10347" x1="41.415" y1="22.8649" x2="42.8445" y2="45.006" gradientUnits="userSpaceOnUse">
<stop stop-color="white"/>
<stop offset="1" stop-color="white"/>
</linearGradient>
<linearGradient id="paint3_linear_26_10347" x1="41.415" y1="22.8649" x2="42.8445" y2="45.006" gradientUnits="userSpaceOnUse">
<stop stop-color="white"/>
<stop offset="1" stop-color="white"/>
</linearGradient>
<linearGradient id="paint4_linear_26_10347" x1="12.8104" y1="5.11047" x2="12.8104" y2="41.0466" gradientUnits="userSpaceOnUse">
<stop stop-color="white"/>
<stop offset="0.35" stop-color="white"/>
<stop offset="0.98" stop-color="white"/>
<stop offset="1" stop-color="white"/>
</linearGradient>
<linearGradient id="paint5_linear_26_10347" x1="3.2445" y1="10.1655" x2="14.7491" y2="47.5834" gradientUnits="userSpaceOnUse">
<stop stop-color="white"/>
<stop offset="1" stop-color="white"/>
</linearGradient>
<linearGradient id="paint6_linear_26_10347" x1="42.1469" y1="37.6421" x2="15.8049" y2="48.8941" gradientUnits="userSpaceOnUse">
<stop stop-color="white"/>
<stop offset="1" stop-color="white"/>
</linearGradient>
</defs>
</svg>
